<svg width="305" height="374" viewBox="0 0 305 374" fill="none" xmlns="http://www.w3.org/2000/svg">
<path fill-rule="evenodd" clip-rule="evenodd" d="M270.922 202.837C272.908 201.72 274.234 199.715 274.486 197.451C274.552 196.858 274.543 196.259 274.458 195.668L274.434 195.499C274.206 193.905 273.517 192.407 272.483 191.172C251.875 166.542 248.897 148.059 250.085 110.558C248.143 90.6377 246.238 82.4108 241.085 74.0578C225.23 48.4644 215.133 35.9174 192.085 21.0578C188.211 18.6608 184.513 16.5086 180.934 14.5819L180.831 14.4362L180.758 14.4875C155.882 1.13529 136.675 -1.32462 103.585 0.557763C94.1173 1.8783 86.0595 3.51026 78.6983 5.85773L78.2424 5.69806L78.1214 6.04361C61.8685 11.3359 48.9535 20.2026 31.5852 37.0578C1.77706 71.0539 -0.560682 95.3881 0.0852129 140.558C4.19172 180.849 16.4033 200.384 50.0852 231.558C66.5579 242.992 76.7569 246.531 99.5852 250.558C146.731 255.005 173.325 260.61 215.942 284.233C218.665 285.743 221.722 286.558 224.835 286.558C226.329 286.558 227.823 286.37 229.271 286.002C231.906 285.333 234.495 284.183 236.176 282.047C236.411 281.748 236.644 281.435 236.884 281.099C238.74 278.5 239.749 275.396 240.129 272.225C241.837 257.997 243.914 250.443 250.482 246.426C251.501 245.803 252.972 244.264 253.619 243.26C254.963 241.178 253.919 239.503 252.567 237.426C251.869 236.354 251.458 235.368 251.341 234.346C251.087 232.116 253.624 231.245 255.848 230.944C256.926 230.798 257.93 230.066 258.469 229.121C259.294 227.678 259.732 226.489 259.764 225.242C259.812 223.413 258.628 221.917 257.472 220.456C257.262 220.191 257.053 219.927 256.852 219.661C255.632 218.051 254.956 216.147 255.004 212.481C255.021 211.231 255.516 210.04 256.317 209.08C257.14 208.092 258.262 207.399 259.514 207.104L264.152 206.013C265.435 205.711 266.668 205.23 267.816 204.584L270.922 202.837ZM169.204 236.686C169.419 244.976 171.677 252.171 174.342 259.603C151.638 251.69 129.873 248.398 100.256 245.599C89.0326 243.614 81.1949 241.792 74.2179 239.158C67.3398 236.561 61.1079 233.102 53.2234 227.649C36.6421 212.281 25.7031 200.086 18.3517 187.024C11.0397 174.033 7.0962 159.855 5.08159 140.267C4.76455 117.781 5.2267 101.091 9.24848 85.8971C13.2253 70.8734 20.7787 56.9987 35.2123 40.5054C47.6721 28.4286 57.5336 20.8036 67.8308 15.6402C68.0958 15.5073 68.3613 15.376 68.6274 15.2461C66.1258 25.6029 63.5546 35.4079 61.0996 44.7695L60.8908 45.5658C58.269 55.5645 55.7837 65.0686 53.6826 74.1509C49.4838 92.3009 46.7748 108.941 47.5768 124.814C49.1965 156.873 65.098 185.15 109.643 216.6L112.527 212.516C68.7643 181.618 54.0876 154.59 52.5704 124.562C51.8039 109.391 54.3868 93.2912 58.554 75.2778C60.6359 66.2784 63.1023 56.8448 65.7273 46.834L65.9404 46.0214C68.4998 36.2616 71.2002 25.9639 73.8167 15.0525L70.6492 14.293C71.7232 13.8044 72.8081 13.3386 73.9075 12.894C78.9372 56.7042 89.1934 89.6983 106.02 119.298C122.85 148.903 146.178 174.976 177.107 205.007C171.084 217.852 168.974 227.801 169.204 236.686ZM177.528 18.4316C197.844 47.4795 207.53 72.7804 207.652 100.685C207.691 109.734 206.726 119.09 204.769 128.968C193.421 93.605 181.354 69.826 163.435 51.7834C145.298 33.5216 121.373 21.35 86.8203 8.7589C92.0156 7.46826 97.683 6.43446 104.074 5.5381C122.765 4.48326 136.578 4.86546 149.39 7.71301C158.66 9.77348 167.569 13.1623 177.528 18.4316ZM202.565 138.7C190.518 98.9704 178.307 73.8533 159.887 55.3068C141.479 36.7718 116.635 24.5584 78.7445 11.1745C83.6671 55.0434 93.795 87.6755 110.367 116.827C126.63 145.435 149.172 170.824 179.398 200.26C190.197 177.039 197.945 156.928 202.565 138.7Z" fill="url(#paint0_linear_18_152)"/>
<circle cx="78" cy="10.2394" r="6" stroke="url(#paint1_linear_18_152)" stroke-width="8"/>
<circle cx="10" cy="78.2394" r="6" stroke="url(#paint2_linear_18_152)" stroke-width="8"/>
<circle cx="106" cy="209.239" r="6" stroke="url(#paint3_linear_18_152)" stroke-width="8"/>
<circle cx="45" cy="221.239" r="6" stroke="url(#paint4_linear_18_152)" stroke-width="8"/>
<circle cx="56" cy="148.858" r="6" stroke="url(#paint5_linear_18_152)" stroke-width="8"/>
<circle cx="139" cy="34.2394" r="6" stroke="url(#paint6_linear_18_152)" stroke-width="8"/>
<circle cx="173" cy="64.2394" r="6" stroke="url(#paint7_linear_18_152)" stroke-width="8"/>
<path d="M71.4453 373.739L70.0391 370.114H65.4609L64.0625 373.739H62.7188L67.1875 362.271H68.3828L72.8203 373.739H71.4453ZM69.6406 368.935L68.3047 365.333C68.2734 365.239 68.2214 365.086 68.1484 364.872C68.0807 364.659 68.0104 364.437 67.9375 364.208C67.8646 363.979 67.8047 363.794 67.7578 363.653C67.7057 363.867 67.6484 364.081 67.5859 364.294C67.5286 364.502 67.4714 364.698 67.4141 364.88C67.3568 365.057 67.3073 365.208 67.2656 365.333L65.9062 368.935H69.6406ZM85.0078 370.7C85.0078 371.377 84.8385 371.956 84.5 372.435C84.1667 372.909 83.6979 373.271 83.0938 373.521C82.4896 373.771 81.7786 373.896 80.9609 373.896C80.5286 373.896 80.1198 373.875 79.7344 373.833C79.349 373.791 78.9948 373.732 78.6719 373.653C78.349 373.575 78.0651 373.479 77.8203 373.364V372.091C78.2109 372.252 78.6875 372.403 79.25 372.544C79.8125 372.679 80.401 372.747 81.0156 372.747C81.5885 372.747 82.0729 372.672 82.4688 372.521C82.8646 372.364 83.1641 372.143 83.3672 371.857C83.5755 371.565 83.6797 371.216 83.6797 370.81C83.6797 370.419 83.5938 370.094 83.4219 369.833C83.25 369.568 82.9635 369.328 82.5625 369.114C82.1667 368.896 81.625 368.664 80.9375 368.419C80.4531 368.247 80.026 368.06 79.6562 367.857C79.2865 367.648 78.9766 367.414 78.7266 367.153C78.4766 366.893 78.2865 366.591 78.1562 366.247C78.0312 365.903 77.9688 365.51 77.9688 365.068C77.9688 364.458 78.1224 363.937 78.4297 363.505C78.7422 363.068 79.1719 362.734 79.7188 362.505C80.2708 362.271 80.9036 362.153 81.6172 362.153C82.2266 362.153 82.7891 362.211 83.3047 362.325C83.8255 362.44 84.3021 362.594 84.7344 362.786L84.3203 363.927C83.9089 363.755 83.4714 363.612 83.0078 363.497C82.5495 363.383 82.0755 363.325 81.5859 363.325C81.0964 363.325 80.6823 363.398 80.3438 363.544C80.0104 363.685 79.7552 363.885 79.5781 364.146C79.401 364.406 79.3125 364.716 79.3125 365.075C79.3125 365.476 79.3958 365.81 79.5625 366.075C79.7344 366.341 80.0052 366.578 80.375 366.786C80.75 366.989 81.2448 367.203 81.8594 367.427C82.5312 367.672 83.1016 367.932 83.5703 368.208C84.0391 368.479 84.3958 368.812 84.6406 369.208C84.8854 369.599 85.0078 370.096 85.0078 370.7ZM96.4453 365.021C97.388 365.021 98.099 365.268 98.5781 365.763C99.0573 366.252 99.2969 367.041 99.2969 368.13V373.739H98.0156V368.193C98.0156 367.5 97.8646 366.982 97.5625 366.638C97.2656 366.289 96.8229 366.114 96.2344 366.114C95.4062 366.114 94.8047 366.354 94.4297 366.833C94.0547 367.312 93.8672 368.018 93.8672 368.95V373.739H92.5781V368.193C92.5781 367.729 92.5104 367.344 92.375 367.036C92.2448 366.729 92.0469 366.5 91.7812 366.349C91.5208 366.193 91.1901 366.114 90.7891 366.114C90.2214 366.114 89.7656 366.232 89.4219 366.466C89.0781 366.7 88.8281 367.049 88.6719 367.513C88.5208 367.971 88.4453 368.536 88.4453 369.208V373.739H87.1484V365.177H88.1953L88.3906 366.388H88.4609C88.6328 366.091 88.849 365.841 89.1094 365.638C89.3698 365.435 89.6615 365.281 89.9844 365.177C90.3073 365.073 90.651 365.021 91.0156 365.021C91.6667 365.021 92.2109 365.143 92.6484 365.388C93.0911 365.627 93.4115 365.995 93.6094 366.489H93.6797C93.9609 365.995 94.3464 365.627 94.8359 365.388C95.3255 365.143 95.862 365.021 96.4453 365.021ZM105.164 365.036C106.185 365.036 106.943 365.265 107.438 365.724C107.932 366.182 108.18 366.914 108.18 367.919V373.739H107.234L106.984 372.474H106.922C106.682 372.786 106.432 373.049 106.172 373.263C105.911 373.471 105.609 373.63 105.266 373.739C104.927 373.844 104.51 373.896 104.016 373.896C103.495 373.896 103.031 373.804 102.625 373.622C102.224 373.44 101.906 373.164 101.672 372.794C101.443 372.424 101.328 371.956 101.328 371.388C101.328 370.534 101.667 369.877 102.344 369.419C103.021 368.961 104.052 368.711 105.438 368.669L106.914 368.607V368.083C106.914 367.344 106.755 366.825 106.438 366.528C106.12 366.232 105.672 366.083 105.094 366.083C104.646 366.083 104.219 366.148 103.812 366.278C103.406 366.409 103.021 366.562 102.656 366.739L102.258 365.755C102.643 365.557 103.086 365.388 103.586 365.247C104.086 365.107 104.612 365.036 105.164 365.036ZM106.898 369.521L105.594 369.575C104.526 369.617 103.773 369.791 103.336 370.099C102.898 370.406 102.68 370.841 102.68 371.403C102.68 371.893 102.828 372.255 103.125 372.489C103.422 372.724 103.815 372.841 104.305 372.841C105.065 372.841 105.688 372.63 106.172 372.208C106.656 371.786 106.898 371.153 106.898 370.31V369.521ZM114.742 365.021C114.914 365.021 115.094 365.031 115.281 365.052C115.469 365.068 115.635 365.091 115.781 365.122L115.617 366.325C115.477 366.289 115.32 366.26 115.148 366.239C114.977 366.219 114.815 366.208 114.664 366.208C114.32 366.208 113.995 366.278 113.688 366.419C113.385 366.554 113.12 366.752 112.891 367.013C112.661 367.268 112.482 367.578 112.352 367.943C112.221 368.302 112.156 368.703 112.156 369.146V373.739H110.852V365.177H111.93L112.07 366.755H112.125C112.302 366.437 112.516 366.148 112.766 365.888C113.016 365.622 113.305 365.411 113.633 365.255C113.966 365.099 114.336 365.021 114.742 365.021ZM120.164 372.833C120.378 372.833 120.596 372.815 120.82 372.778C121.044 372.742 121.227 372.698 121.367 372.646V373.653C121.216 373.721 121.005 373.778 120.734 373.825C120.469 373.872 120.208 373.896 119.953 373.896C119.5 373.896 119.089 373.818 118.719 373.661C118.349 373.5 118.052 373.229 117.828 372.849C117.609 372.469 117.5 371.943 117.5 371.271V366.193H116.281V365.56L117.508 365.052L118.023 363.193H118.805V365.177H121.312V366.193H118.805V371.232C118.805 371.768 118.927 372.169 119.172 372.435C119.422 372.7 119.753 372.833 120.164 372.833ZM137.359 368.013C137.359 368.893 137.247 369.695 137.023 370.419C136.799 371.138 136.466 371.758 136.023 372.278C135.586 372.794 135.042 373.193 134.391 373.474C133.74 373.755 132.984 373.896 132.125 373.896C131.24 373.896 130.466 373.755 129.805 373.474C129.148 373.193 128.602 372.791 128.164 372.271C127.732 371.75 127.406 371.127 127.188 370.403C126.974 369.679 126.867 368.877 126.867 367.997C126.867 366.831 127.06 365.807 127.445 364.927C127.831 364.047 128.414 363.362 129.195 362.872C129.982 362.383 130.966 362.138 132.148 362.138C133.279 362.138 134.229 362.38 135 362.864C135.776 363.349 136.362 364.031 136.758 364.911C137.159 365.786 137.359 366.82 137.359 368.013ZM128.266 368.013C128.266 368.982 128.404 369.82 128.68 370.528C128.956 371.237 129.378 371.784 129.945 372.169C130.518 372.554 131.245 372.747 132.125 372.747C133.01 372.747 133.734 372.554 134.297 372.169C134.865 371.784 135.284 371.237 135.555 370.528C135.826 369.82 135.961 368.982 135.961 368.013C135.961 366.539 135.651 365.388 135.031 364.56C134.417 363.726 133.456 363.31 132.148 363.31C131.263 363.31 130.534 363.5 129.961 363.88C129.388 364.26 128.961 364.802 128.68 365.505C128.404 366.203 128.266 367.039 128.266 368.013ZM142.758 373.896C141.674 373.896 140.815 373.526 140.18 372.786C139.549 372.047 139.234 370.948 139.234 369.489C139.234 368.015 139.557 366.903 140.203 366.153C140.849 365.398 141.708 365.021 142.781 365.021C143.234 365.021 143.63 365.081 143.969 365.2C144.307 365.32 144.599 365.482 144.844 365.685C145.089 365.883 145.294 366.109 145.461 366.364H145.555C145.534 366.203 145.513 365.982 145.492 365.7C145.471 365.419 145.461 365.19 145.461 365.013V361.583H146.758V373.739H145.711L145.516 372.521H145.461C145.299 372.776 145.094 373.008 144.844 373.216C144.599 373.424 144.305 373.591 143.961 373.716C143.622 373.836 143.221 373.896 142.758 373.896ZM142.961 372.818C143.878 372.818 144.526 372.557 144.906 372.036C145.286 371.515 145.477 370.742 145.477 369.716V369.482C145.477 368.393 145.294 367.557 144.93 366.974C144.57 366.39 143.914 366.099 142.961 366.099C142.164 366.099 141.568 366.406 141.172 367.021C140.776 367.63 140.578 368.463 140.578 369.521C140.578 370.573 140.773 371.385 141.164 371.958C141.56 372.531 142.159 372.818 142.961 372.818ZM150.805 365.177V373.739H149.508V365.177H150.805ZM150.172 361.974C150.385 361.974 150.568 362.044 150.719 362.185C150.875 362.32 150.953 362.534 150.953 362.825C150.953 363.112 150.875 363.325 150.719 363.466C150.568 363.607 150.385 363.677 150.172 363.677C149.948 363.677 149.76 363.607 149.609 363.466C149.464 363.325 149.391 363.112 149.391 362.825C149.391 362.534 149.464 362.32 149.609 362.185C149.76 362.044 149.948 361.974 150.172 361.974ZM159.094 371.396C159.094 371.943 158.956 372.403 158.68 372.778C158.409 373.148 158.018 373.427 157.508 373.614C157.003 373.802 156.398 373.896 155.695 373.896C155.096 373.896 154.578 373.849 154.141 373.755C153.703 373.661 153.32 373.528 152.992 373.357V372.161C153.341 372.333 153.758 372.489 154.242 372.63C154.727 372.771 155.221 372.841 155.727 372.841C156.466 372.841 157.003 372.721 157.336 372.482C157.669 372.242 157.836 371.916 157.836 371.505C157.836 371.271 157.768 371.065 157.633 370.888C157.503 370.706 157.281 370.531 156.969 370.364C156.656 370.193 156.224 370.005 155.672 369.802C155.125 369.594 154.651 369.388 154.25 369.185C153.854 368.976 153.547 368.724 153.328 368.427C153.115 368.13 153.008 367.745 153.008 367.271C153.008 366.547 153.299 365.992 153.883 365.607C154.471 365.216 155.242 365.021 156.195 365.021C156.711 365.021 157.193 365.073 157.641 365.177C158.094 365.276 158.516 365.411 158.906 365.583L158.469 366.622C158.115 366.471 157.737 366.344 157.336 366.239C156.935 366.135 156.526 366.083 156.109 366.083C155.51 366.083 155.049 366.182 154.727 366.38C154.409 366.578 154.25 366.849 154.25 367.193C154.25 367.458 154.323 367.677 154.469 367.849C154.62 368.021 154.859 368.182 155.188 368.333C155.516 368.484 155.948 368.661 156.484 368.864C157.021 369.062 157.484 369.268 157.875 369.482C158.266 369.69 158.565 369.945 158.773 370.247C158.987 370.544 159.094 370.927 159.094 371.396ZM162.477 361.583V365.216C162.477 365.424 162.471 365.635 162.461 365.849C162.451 366.057 162.432 366.25 162.406 366.427H162.492C162.669 366.125 162.893 365.872 163.164 365.669C163.44 365.461 163.753 365.304 164.102 365.2C164.451 365.091 164.82 365.036 165.211 365.036C165.898 365.036 166.471 365.146 166.93 365.364C167.393 365.583 167.74 365.922 167.969 366.38C168.203 366.838 168.32 367.432 168.32 368.161V373.739H167.039V368.247C167.039 367.534 166.875 367 166.547 366.646C166.224 366.291 165.727 366.114 165.055 366.114C164.419 366.114 163.911 366.237 163.531 366.482C163.156 366.721 162.885 367.075 162.719 367.544C162.557 368.013 162.477 368.586 162.477 369.263V373.739H161.18V361.583H162.477ZM174.195 365.036C175.216 365.036 175.974 365.265 176.469 365.724C176.964 366.182 177.211 366.914 177.211 367.919V373.739H176.266L176.016 372.474H175.953C175.714 372.786 175.464 373.049 175.203 373.263C174.943 373.471 174.641 373.63 174.297 373.739C173.958 373.844 173.542 373.896 173.047 373.896C172.526 373.896 172.062 373.804 171.656 373.622C171.255 373.44 170.938 373.164 170.703 372.794C170.474 372.424 170.359 371.956 170.359 371.388C170.359 370.534 170.698 369.877 171.375 369.419C172.052 368.961 173.083 368.711 174.469 368.669L175.945 368.607V368.083C175.945 367.344 175.786 366.825 175.469 366.528C175.151 366.232 174.703 366.083 174.125 366.083C173.677 366.083 173.25 366.148 172.844 366.278C172.438 366.409 172.052 366.562 171.688 366.739L171.289 365.755C171.674 365.557 172.117 365.388 172.617 365.247C173.117 365.107 173.643 365.036 174.195 365.036ZM175.93 369.521L174.625 369.575C173.557 369.617 172.805 369.791 172.367 370.099C171.93 370.406 171.711 370.841 171.711 371.403C171.711 371.893 171.859 372.255 172.156 372.489C172.453 372.724 172.846 372.841 173.336 372.841C174.096 372.841 174.719 372.63 175.203 372.208C175.688 371.786 175.93 371.153 175.93 370.31V369.521ZM192.891 373.739H191.562V368.357H185.562V373.739H184.234V362.318H185.562V367.185H191.562V362.318H192.891V373.739ZM199.039 365.036C200.06 365.036 200.818 365.265 201.312 365.724C201.807 366.182 202.055 366.914 202.055 367.919V373.739H201.109L200.859 372.474H200.797C200.557 372.786 200.307 373.049 200.047 373.263C199.786 373.471 199.484 373.63 199.141 373.739C198.802 373.844 198.385 373.896 197.891 373.896C197.37 373.896 196.906 373.804 196.5 373.622C196.099 373.44 195.781 373.164 195.547 372.794C195.318 372.424 195.203 371.956 195.203 371.388C195.203 370.534 195.542 369.877 196.219 369.419C196.896 368.961 197.927 368.711 199.312 368.669L200.789 368.607V368.083C200.789 367.344 200.63 366.825 200.312 366.528C199.995 366.232 199.547 366.083 198.969 366.083C198.521 366.083 198.094 366.148 197.688 366.278C197.281 366.409 196.896 366.562 196.531 366.739L196.133 365.755C196.518 365.557 196.961 365.388 197.461 365.247C197.961 365.107 198.487 365.036 199.039 365.036ZM200.773 369.521L199.469 369.575C198.401 369.617 197.648 369.791 197.211 370.099C196.773 370.406 196.555 370.841 196.555 371.403C196.555 371.893 196.703 372.255 197 372.489C197.297 372.724 197.69 372.841 198.18 372.841C198.94 372.841 199.562 372.63 200.047 372.208C200.531 371.786 200.773 371.153 200.773 370.31V369.521ZM208.156 373.896C207.385 373.896 206.706 373.737 206.117 373.419C205.529 373.101 205.07 372.617 204.742 371.966C204.414 371.315 204.25 370.495 204.25 369.505C204.25 368.469 204.422 367.622 204.766 366.966C205.115 366.304 205.594 365.815 206.203 365.497C206.812 365.179 207.505 365.021 208.281 365.021C208.708 365.021 209.12 365.065 209.516 365.153C209.917 365.237 210.245 365.344 210.5 365.474L210.109 366.56C209.849 366.456 209.547 366.362 209.203 366.278C208.865 366.195 208.547 366.153 208.25 366.153C207.656 366.153 207.161 366.281 206.766 366.536C206.375 366.791 206.081 367.166 205.883 367.661C205.69 368.156 205.594 368.765 205.594 369.489C205.594 370.182 205.688 370.773 205.875 371.263C206.068 371.752 206.352 372.127 206.727 372.388C207.107 372.643 207.581 372.771 208.148 372.771C208.602 372.771 209.01 372.724 209.375 372.63C209.74 372.531 210.07 372.416 210.367 372.286V373.443C210.081 373.588 209.76 373.7 209.406 373.778C209.057 373.857 208.641 373.896 208.156 373.896ZM213.688 361.583V367.896C213.688 368.104 213.68 368.359 213.664 368.661C213.648 368.958 213.635 369.221 213.625 369.45H213.68C213.789 369.315 213.948 369.114 214.156 368.849C214.37 368.583 214.549 368.37 214.695 368.208L217.539 365.177H219.062L215.617 368.833L219.312 373.739H217.75L214.727 369.685L213.688 370.638V373.739H212.398V361.583H213.688ZM224.008 365.036C225.029 365.036 225.786 365.265 226.281 365.724C226.776 366.182 227.023 366.914 227.023 367.919V373.739H226.078L225.828 372.474H225.766C225.526 372.786 225.276 373.049 225.016 373.263C224.755 373.471 224.453 373.63 224.109 373.739C223.771 373.844 223.354 373.896 222.859 373.896C222.339 373.896 221.875 373.804 221.469 373.622C221.068 373.44 220.75 373.164 220.516 372.794C220.286 372.424 220.172 371.956 220.172 371.388C220.172 370.534 220.51 369.877 221.188 369.419C221.865 368.961 222.896 368.711 224.281 368.669L225.758 368.607V368.083C225.758 367.344 225.599 366.825 225.281 366.528C224.964 366.232 224.516 366.083 223.938 366.083C223.49 366.083 223.062 366.148 222.656 366.278C222.25 366.409 221.865 366.562 221.5 366.739L221.102 365.755C221.487 365.557 221.93 365.388 222.43 365.247C222.93 365.107 223.456 365.036 224.008 365.036ZM225.742 369.521L224.438 369.575C223.37 369.617 222.617 369.791 222.18 370.099C221.742 370.406 221.523 370.841 221.523 371.403C221.523 371.893 221.672 372.255 221.969 372.489C222.266 372.724 222.659 372.841 223.148 372.841C223.909 372.841 224.531 372.63 225.016 372.208C225.5 371.786 225.742 371.153 225.742 370.31V369.521ZM232.461 372.833C232.674 372.833 232.893 372.815 233.117 372.778C233.341 372.742 233.523 372.698 233.664 372.646V373.653C233.513 373.721 233.302 373.778 233.031 373.825C232.766 373.872 232.505 373.896 232.25 373.896C231.797 373.896 231.385 373.818 231.016 373.661C230.646 373.5 230.349 373.229 230.125 372.849C229.906 372.469 229.797 371.943 229.797 371.271V366.193H228.578V365.56L229.805 365.052L230.32 363.193H231.102V365.177H233.609V366.193H231.102V371.232C231.102 371.768 231.224 372.169 231.469 372.435C231.719 372.7 232.049 372.833 232.461 372.833ZM236.695 361.583V365.216C236.695 365.424 236.69 365.635 236.68 365.849C236.669 366.057 236.651 366.25 236.625 366.427H236.711C236.888 366.125 237.112 365.872 237.383 365.669C237.659 365.461 237.971 365.304 238.32 365.2C238.669 365.091 239.039 365.036 239.43 365.036C240.117 365.036 240.69 365.146 241.148 365.364C241.612 365.583 241.958 365.922 242.188 366.38C242.422 366.838 242.539 367.432 242.539 368.161V373.739H241.258V368.247C241.258 367.534 241.094 367 240.766 366.646C240.443 366.291 239.945 366.114 239.273 366.114C238.638 366.114 238.13 366.237 237.75 366.482C237.375 366.721 237.104 367.075 236.938 367.544C236.776 368.013 236.695 368.586 236.695 369.263V373.739H235.398V361.583H236.695ZM252.594 369.443C252.594 370.146 252.503 370.773 252.32 371.325C252.138 371.877 251.875 372.344 251.531 372.724C251.188 373.104 250.771 373.396 250.281 373.599C249.797 373.797 249.247 373.896 248.633 373.896C248.06 373.896 247.534 373.797 247.055 373.599C246.581 373.396 246.169 373.104 245.82 372.724C245.477 372.344 245.208 371.877 245.016 371.325C244.828 370.773 244.734 370.146 244.734 369.443C244.734 368.505 244.893 367.708 245.211 367.052C245.529 366.39 245.982 365.888 246.57 365.544C247.164 365.195 247.87 365.021 248.688 365.021C249.469 365.021 250.151 365.195 250.734 365.544C251.323 365.893 251.779 366.398 252.102 367.06C252.43 367.716 252.594 368.51 252.594 369.443ZM246.078 369.443C246.078 370.13 246.169 370.726 246.352 371.232C246.534 371.737 246.815 372.127 247.195 372.403C247.576 372.679 248.065 372.818 248.664 372.818C249.258 372.818 249.745 372.679 250.125 372.403C250.51 372.127 250.794 371.737 250.977 371.232C251.159 370.726 251.25 370.13 251.25 369.443C251.25 368.76 251.159 368.172 250.977 367.677C250.794 367.177 250.513 366.791 250.133 366.521C249.753 366.25 249.26 366.114 248.656 366.114C247.766 366.114 247.112 366.409 246.695 366.997C246.284 367.586 246.078 368.401 246.078 369.443ZM258.891 365.021C259.906 365.021 260.674 365.271 261.195 365.771C261.716 366.265 261.977 367.062 261.977 368.161V373.739H260.695V368.247C260.695 367.534 260.531 367 260.203 366.646C259.88 366.291 259.383 366.114 258.711 366.114C257.763 366.114 257.096 366.383 256.711 366.919C256.326 367.456 256.133 368.234 256.133 369.255V373.739H254.836V365.177H255.883L256.078 366.411H256.148C256.331 366.109 256.562 365.857 256.844 365.653C257.125 365.445 257.44 365.289 257.789 365.185C258.138 365.075 258.505 365.021 258.891 365.021Z" fill="white"/>
<circle cx="116" cy="97.0798" r="13.8404" fill="url(#paint8_linear_18_152)"/>
<path d="M92.5167 132.135C92.5167 119.165 103.031 108.651 116 108.651C128.97 108.651 139.483 119.165 139.483 132.135V151.534H92.5167V132.135Z" fill="url(#paint9_linear_18_152)"/>
<path d="M83.441 124.874H148.559L140.164 155.462H91.8348L83.441 124.874Z" fill="url(#paint10_linear_18_152)"/>
<path d="M119.683 140.168C119.683 142.202 118.034 144.234 116 144.234C113.966 144.234 112.317 142.202 112.317 140.168C112.317 138.134 113.966 137.043 116 137.043C118.034 137.043 119.683 138.134 119.683 140.168Z" fill="#007521"/>
<mask id="mask0_18_152" style="mask-type:alpha" maskUnits="userSpaceOnUse" x="24" y="321" width="274" height="30">
<path d="M53.6336 335.539C53.6336 327.059 47.2336 321.099 39.1936 321.099C31.1936 321.099 24.7136 327.059 24.7136 335.539C24.7136 344.019 31.1936 350.019 39.1936 350.019C47.1936 350.019 53.6336 344.019 53.6336 335.539ZM32.7136 335.539C32.7136 331.099 35.1136 328.299 39.1936 328.299C43.2336 328.299 45.6736 331.099 45.6736 335.539C45.6736 339.899 43.2336 342.739 39.1936 342.739C35.1136 342.739 32.7136 339.899 32.7136 335.539ZM68.318 321.539H57.158V349.739H68.318C77.318 349.739 83.038 343.779 83.038 335.619C83.038 327.339 77.318 321.539 68.318 321.539ZM64.998 342.819V328.339H67.718C72.238 328.339 75.078 330.939 75.078 335.619C75.078 340.259 72.238 342.819 67.718 342.819H64.998ZM86.572 349.739H94.412V321.539H86.572V349.739ZM118.237 349.739H126.517L116.277 321.539H107.237L96.9567 349.739H105.197L106.717 345.139H116.717L118.237 349.739ZM114.757 339.139H108.717L111.717 330.019L114.757 339.139ZM134.392 334.739V325.659H139.432C142.992 325.659 144.592 327.339 144.592 330.219C144.592 333.019 142.992 334.739 139.432 334.739H134.392ZM149.272 330.219C149.272 325.699 146.032 321.939 139.432 321.939H129.832V349.739H134.392V338.459H139.432C146.672 338.459 149.272 334.179 149.272 330.219ZM168.381 330.259C168.381 333.019 166.781 334.979 163.221 334.979H158.181V325.659H163.221C166.781 325.659 168.381 327.459 168.381 330.259ZM153.621 321.939V349.739H158.181V338.619H161.661L168.061 349.739H173.501L166.621 338.219C171.301 337.059 173.061 333.539 173.061 330.259C173.061 325.739 169.821 321.939 163.221 321.939H153.621ZM194.255 321.899H178.895V349.739H194.255V346.019H183.455V337.499H193.055V333.779H183.455V325.619H194.255V321.899ZM218.151 321.899V342.619L204.431 321.899H199.871V349.739H204.431V328.979L218.151 349.739H222.711V321.899H218.151ZM228.659 339.579C228.659 346.659 233.619 350.019 239.459 350.019C245.259 350.019 250.379 346.659 250.379 339.579V321.939H245.819V339.659C245.819 343.979 243.379 346.019 239.499 346.019C235.659 346.019 233.219 343.979 233.219 339.659V321.939H228.659V339.579ZM271.676 321.899H256.316V349.739H271.676V346.019H260.876V337.499H270.476V333.779H260.876V325.619H271.676V321.899ZM292.053 330.259C292.053 333.019 290.453 334.979 286.893 334.979H281.853V325.659H286.893C290.453 325.659 292.053 327.459 292.053 330.259ZM277.293 321.939V349.739H281.853V338.619H285.333L291.733 349.739H297.173L290.293 338.219C294.973 337.059 296.733 333.539 296.733 330.259C296.733 325.739 293.493 321.939 286.893 321.939H277.293Z" fill="white"/>
</mask>
<g mask="url(#mask0_18_152)">
<rect x="-23.8881" y="290.158" width="349.776" height="85.1629" fill="url(#paint11_linear_18_152)"/>
</g>
<circle cx="38.5" cy="335.239" r="15.5" fill="#FF0000"/>
<circle cx="38.5" cy="335.239" r="12.5" fill="white"/>
<circle cx="38.5" cy="335.239" r="9.5" fill="black"/>
<defs>
<linearGradient id="paint0_linear_18_152" x1="137.265" y1="2.21691e-07" x2="129.5" y2="286.739" gradientUnits="userSpaceOnUse">
<stop stop-color="#00FF66"/>
<stop offset="1" stop-color="#007521"/>
</linearGradient>
<linearGradient id="paint1_linear_18_152" x1="78" y1="0.23938" x2="78" y2="20.2394" gradientUnits="userSpaceOnUse">
<stop stop-color="#00FF66"/>
<stop offset="1" stop-color="#008826"/>
</linearGradient>
<linearGradient id="paint2_linear_18_152" x1="10" y1="68.2394" x2="10" y2="88.2394" gradientUnits="userSpaceOnUse">
<stop stop-color="#00FF66"/>
<stop offset="1" stop-color="#008826"/>
</linearGradient>
<linearGradient id="paint3_linear_18_152" x1="106" y1="199.239" x2="106" y2="219.239" gradientUnits="userSpaceOnUse">
<stop stop-color="#00FF66"/>
<stop offset="1" stop-color="#008826"/>
</linearGradient>
<linearGradient id="paint4_linear_18_152" x1="45" y1="211.239" x2="45" y2="231.239" gradientUnits="userSpaceOnUse">
<stop stop-color="#00FF66"/>
<stop offset="1" stop-color="#008826"/>
</linearGradient>
<linearGradient id="paint5_linear_18_152" x1="56" y1="138.858" x2="56" y2="158.858" gradientUnits="userSpaceOnUse">
<stop stop-color="#00FF66"/>
<stop offset="1" stop-color="#008826"/>
</linearGradient>
<linearGradient id="paint6_linear_18_152" x1="139" y1="24.2394" x2="139" y2="44.2394" gradientUnits="userSpaceOnUse">
<stop stop-color="#00FF66"/>
<stop offset="1" stop-color="#008826"/>
</linearGradient>
<linearGradient id="paint7_linear_18_152" x1="173" y1="54.2394" x2="173" y2="74.2394" gradientUnits="userSpaceOnUse">
<stop stop-color="#00FF66"/>
<stop offset="1" stop-color="#008826"/>
</linearGradient>
<linearGradient id="paint8_linear_18_152" x1="116" y1="83.2394" x2="116" y2="110.92" gradientUnits="userSpaceOnUse">
<stop stop-color="#007521"/>
<stop offset="1" stop-color="#00FF66"/>
</linearGradient>
<linearGradient id="paint9_linear_18_152" x1="116" y1="108.651" x2="116" y2="151.534" gradientUnits="userSpaceOnUse">
<stop stop-color="#007521"/>
<stop offset="1" stop-color="#00FF66"/>
</linearGradient>
<linearGradient id="paint10_linear_18_152" x1="116" y1="124.874" x2="116" y2="155.462" gradientUnits="userSpaceOnUse">
<stop stop-color="#007521"/>
<stop offset="1" stop-color="#00FF66"/>
</linearGradient>
<linearGradient id="paint11_linear_18_152" x1="151" y1="354.03" x2="151" y2="305.366" gradientUnits="userSpaceOnUse">
<stop stop-color="#008826"/>
<stop offset="1" stop-color="#00FF66"/>
</linearGradient>
</defs>
</svg>
